<svg version="1.1" id="Layer_1" xmlns="http://www.w3.org/2000/svg" xmlns:xlink="http://www.w3.org/1999/xlink" x="0px" y="0px"
	 width="100%" viewBox="0 0 86 72" enable-background="new 0 0 86 72" xml:space="preserve">
<path fill="#FDFEFC" opacity="1.000000" stroke="none" 
	d="
M60.000004,73.000000 
	C40.000008,73.000000 20.500011,73.000000 1.000013,73.000000 
	C1.000009,49.000011 1.000009,25.000027 1.000004,1.000029 
	C29.666647,1.000019 58.333294,1.000019 86.999954,1.000010 
	C86.999969,24.999971 86.999969,48.999943 86.999985,72.999954 
	C78.166672,73.000000 69.333336,73.000000 60.000004,73.000000 
M39.026985,49.557430 
	C39.380802,50.029736 39.734623,50.502045 40.613728,51.403046 
	C44.280453,56.005287 48.810116,57.641167 55.095798,55.826382 
	C59.342133,56.810753 64.568748,52.184135 65.555847,46.653206 
	C68.029877,44.191750 70.625977,41.839973 72.954674,39.247952 
	C79.517372,31.943167 80.098251,21.396824 74.478012,14.017157 
	C68.657234,6.374172 58.931973,4.364093 49.452164,9.049505 
	C49.249794,9.331450 49.047428,9.613394 48.917732,9.846733 
	C48.917732,9.846733 48.840019,9.806674 48.113483,9.964252 
	C46.450317,10.233990 44.787151,10.503728 43.001320,10.973064 
	C43.001320,10.973064 43.145481,10.788517 42.737293,10.225896 
	C38.249271,8.987662 33.616219,6.337428 29.300913,6.780674 
	C17.218281,8.021739 11.866471,16.307095 12.406654,30.515680 
	C11.962647,36.884167 16.404413,40.820827 19.826025,45.232689 
	C20.379492,45.946331 21.497566,46.222092 22.354654,46.700260 
	C21.383272,43.512463 19.813656,41.007378 18.108116,38.598537 
	C16.372175,36.146763 16.878399,34.987823 20.355722,35.407906 
	C20.571871,35.933659 20.788019,36.459415 21.145924,37.424953 
	C21.300711,37.703789 21.522909,37.909969 22.342651,38.343620 
	C22.886250,38.571857 23.429846,38.800098 24.001133,39.002071 
	C24.001133,39.002071 23.970066,39.021099 24.014748,39.586716 
	C24.337265,39.735043 24.659782,39.883366 24.997801,39.998161 
	C24.997801,39.998161 24.970695,40.024609 25.001932,40.603153 
	C25.331133,41.076431 25.660334,41.549706 26.236814,42.478020 
	C26.538374,42.630795 26.839935,42.783566 27.686146,43.052406 
	C28.124178,43.369839 28.562208,43.687275 29.329969,44.512074 
	C29.897905,44.669590 30.465841,44.827103 31.527246,45.070255 
	C31.686441,45.120537 31.845638,45.170822 32.386246,45.634125 
	C32.927055,45.764778 33.467869,45.895432 34.512955,46.361721 
	C35.904114,46.590496 37.295269,46.819267 38.889862,47.655907 
	C38.937977,48.079590 38.986088,48.503273 39.026985,49.557430 
M40.134518,61.340462 
	C46.161629,66.155746 46.161629,66.155746 51.417217,60.066483 
	C45.972069,57.810581 40.769058,55.654999 35.566048,53.499413 
	C35.328396,53.932846 35.090748,54.366280 34.853100,54.799709 
	C36.448250,56.807899 38.043404,58.816086 40.134518,61.340462 
M52.503822,58.884678 
	C52.680775,58.815586 52.857731,58.746494 53.034687,58.677406 
	C52.881023,58.676582 52.727364,58.675758 52.503822,58.884678 
z"/>
<path fill="#A6CE60" opacity="1.000000" stroke="none" 
	d="
M49.984852,8.954756 
	C58.931973,4.364093 68.657234,6.374172 74.478012,14.017157 
	C80.098251,21.396824 79.517372,31.943167 72.954674,39.247952 
	C70.625977,41.839973 68.029877,44.191750 64.890152,46.765739 
	C63.826523,45.753902 63.067673,44.621906 63.091240,43.506439 
	C63.212769,37.755524 60.074726,34.121643 55.230888,32.107033 
	C50.021873,29.940538 44.901634,30.328053 40.468578,35.046883 
	C35.823959,38.087875 34.671803,37.733532 30.871351,32.020901 
	C30.528906,31.163860 30.157932,30.654682 29.736523,30.194828 
	C29.686087,30.244148 29.545240,30.252371 29.663702,29.857803 
	C29.782810,27.074135 29.446499,24.626955 29.846413,22.306671 
	C31.116056,14.940266 37.086628,12.760670 43.145481,10.788517 
	C43.145481,10.788517 43.001320,10.973064 43.179867,11.183559 
	C45.809811,13.020418 47.881046,13.334003 48.840019,9.806674 
	C48.840019,9.806674 48.917732,9.846733 49.135273,9.803288 
	C49.563492,9.491479 49.774174,9.223118 49.984852,8.954756 
z"/>
<path fill="#A9CB6C" opacity="1.000000" stroke="none" 
	d="
M42.941387,10.507206 
	C37.086628,12.760670 31.116056,14.940266 29.846413,22.306671 
	C29.446499,24.626955 29.782810,27.074135 29.404413,29.683887 
	C28.646706,28.932749 28.266748,27.960960 27.920473,26.574736 
	C27.964886,24.772144 27.975615,23.383989 28.039001,21.600594 
	C28.469177,19.270638 28.846697,17.335917 29.451839,15.312593 
	C29.879183,14.794032 30.078905,14.364076 30.435268,13.651121 
	C30.986441,12.889116 31.380972,12.410110 31.775501,11.931104 
	C30.769358,11.707380 29.331894,10.942661 28.825809,11.346148 
	C25.027641,14.374321 21.413151,17.632877 17.509972,21.056545 
	C16.832394,22.529186 16.386034,23.764631 15.775507,25.300034 
	C14.721353,27.076212 13.831364,28.552435 12.941376,30.028656 
	C11.866471,16.307095 17.218281,8.021739 29.300913,6.780674 
	C33.616219,6.337428 38.249271,8.987662 42.941387,10.507206 
z"/>
<path fill="#F2FBDF" opacity="1.000000" stroke="none" 
	d="
M15.939673,25.000078 
	C16.386034,23.764631 16.832394,22.529186 17.787197,21.237963 
	C19.066456,22.479330 19.519829,24.436085 21.623478,22.442066 
	C22.610813,21.506182 23.836622,20.821882 24.857653,20.306107 
	C24.409826,23.385738 24.058706,26.182835 23.797825,29.343822 
	C25.076298,34.311512 27.832451,37.380932 32.249969,38.878494 
	C30.138861,35.449566 28.100922,32.139473 26.056599,28.517300 
	C26.086910,27.413628 26.123608,26.622040 26.176504,25.481030 
	C27.015646,26.220989 27.451220,26.605080 27.886791,26.989170 
	C28.266748,27.960960 28.646706,28.932749 29.285952,30.078455 
	C29.545240,30.252371 29.686087,30.244148 29.721176,30.518917 
	C30.118450,31.318712 30.480637,31.843739 30.842823,32.368763 
	C34.671803,37.733532 35.823959,38.087875 40.735260,35.187271 
	C41.547424,35.449108 41.790295,35.759720 41.994976,36.427368 
	C40.965271,39.191643 39.973755,41.598877 38.948265,44.250557 
	C38.914299,44.495007 38.964001,44.986095 38.910637,45.329399 
	C38.800327,46.131149 38.743378,46.589592 38.686428,47.048038 
	C37.295269,46.819267 35.904114,46.590496 34.267403,45.999996 
	C34.021851,45.638271 34.065228,45.253235 33.982552,44.898922 
	C30.923485,43.037941 27.947090,41.531273 24.970695,40.024609 
	C24.970695,40.024609 24.997801,39.998161 25.002018,39.711456 
	C24.660845,39.290199 24.315456,39.155647 23.970066,39.021099 
	C23.970066,39.021099 24.001133,39.002071 24.089161,38.649437 
	C22.774082,35.099075 21.370979,31.901350 19.978325,28.323151 
	C20.280973,24.702513 18.019920,24.975695 15.939673,25.000078 
z"/>
<path fill="#ECFAD7" opacity="1.000000" stroke="none" 
	d="
M42.033165,36.070332 
	C41.790295,35.759720 41.547424,35.449108 41.037872,34.998108 
	C44.901634,30.328053 50.021873,29.940538 55.230888,32.107033 
	C60.074726,34.121643 63.212769,37.755524 63.091240,43.506439 
	C63.067673,44.621906 63.826523,45.753902 64.618378,46.963276 
	C64.568748,52.184135 59.342133,56.810753 55.001190,55.409195 
	C55.638096,54.012157 56.369614,53.032310 57.407764,51.881512 
	C62.243362,46.982819 62.270935,42.406219 57.791225,37.668701 
	C52.905445,32.331280 49.857243,32.089413 42.033165,36.070332 
z"/>
<path fill="#F1F9DE" opacity="1.000000" stroke="none" 
	d="
M15.775507,25.300034 
	C18.019920,24.975695 20.280973,24.702513 19.971498,28.711300 
	C19.941496,31.331377 19.928772,33.182831 19.916046,35.034283 
	C16.878399,34.987823 16.372175,36.146763 18.108116,38.598537 
	C19.813656,41.007378 21.383272,43.512463 22.354654,46.700260 
	C21.497566,46.222092 20.379492,45.946331 19.826025,45.232689 
	C16.404413,40.820827 11.962647,36.884167 12.674015,30.272167 
	C13.831364,28.552435 14.721353,27.076212 15.775507,25.300034 
z"/>
<path fill="#3B3B99" opacity="1.000000" stroke="none" 
	d="
M39.886536,61.082367 
	C38.043404,58.816086 36.448250,56.807899 34.853100,54.799709 
	C35.090748,54.366280 35.328396,53.932846 35.566048,53.499413 
	C40.769058,55.654999 45.972069,57.810581 51.417217,60.066483 
	C46.161629,66.155746 46.161629,66.155746 39.886536,61.082367 
z"/>
<path fill="#A9CA6F" opacity="1.000000" stroke="none" 
	d="
M57.101135,52.052464 
	C56.369614,53.032310 55.638096,54.012157 54.682648,55.211323 
	C48.810116,57.641167 44.280453,56.005287 40.317162,50.882217 
	C39.963001,49.955112 39.905415,49.548840 39.901852,49.094505 
	C39.955879,49.046448 40.065617,48.952259 40.390053,49.123398 
	C42.300636,49.730579 44.507214,51.055748 45.369316,50.454178 
	C49.964760,47.247486 53.364552,50.450470 57.101135,52.052464 
z"/>
<path fill="#B1C782" opacity="1.000000" stroke="none" 
	d="
M20.135885,35.221092 
	C19.928772,33.182831 19.941496,31.331377 19.961048,29.091774 
	C21.370979,31.901350 22.774082,35.099075 24.075315,38.662567 
	C23.429846,38.800098 22.886250,38.571857 22.027086,37.963249 
	C21.556126,37.288548 21.320341,37.089310 21.004168,36.985168 
	C20.788019,36.459415 20.571871,35.933659 20.135885,35.221092 
z"/>
<path fill="#B1C782" opacity="1.000000" stroke="none" 
	d="
M24.986313,40.313881 
	C27.947090,41.531273 30.923485,43.037941 33.638668,44.859886 
	C32.919918,45.190475 32.462376,45.205791 32.004837,45.221107 
	C31.845638,45.170822 31.686441,45.120537 31.101517,44.790920 
	C30.117270,44.342625 29.558756,44.173664 29.000240,44.004707 
	C28.562208,43.687275 28.124178,43.369839 27.283691,42.772835 
	C26.584003,42.336506 26.286770,42.179745 25.989536,42.022984 
	C25.660334,41.549706 25.331133,41.076431 24.986313,40.313881 
z"/>
<path fill="#A9CB6C" opacity="1.000000" stroke="none" 
	d="
M48.476753,9.885464 
	C47.881046,13.334003 45.809811,13.020418 43.241199,11.083759 
	C44.787151,10.503728 46.450317,10.233990 48.476753,9.885464 
z"/>
<path fill="#A9CA6F" opacity="1.000000" stroke="none" 
	d="
M38.788147,47.351974 
	C38.743378,46.589592 38.800327,46.131149 39.185226,45.558456 
	C39.697319,46.613564 39.881470,47.782909 40.065617,48.952259 
	C40.065617,48.952259 39.955879,49.046448 39.701759,49.028942 
	C39.447636,49.011436 39.034203,48.926956 39.034203,48.926956 
	C38.986088,48.503273 38.937977,48.079590 38.788147,47.351974 
z"/>
<path fill="#3B3B99" opacity="1.000000" stroke="none" 
	d="
M52.538761,58.779808 
	C52.727364,58.675758 52.881023,58.676582 53.034687,58.677406 
	C52.857731,58.746494 52.680775,58.815586 52.538761,58.779808 
z"/>
<path fill="#F1F9DE" opacity="1.000000" stroke="none" 
	d="
M29.165104,44.258392 
	C29.558756,44.173664 30.117270,44.342625 30.854782,44.748100 
	C30.465841,44.827103 29.897905,44.669590 29.165104,44.258392 
z"/>
<path fill="#F1F9DE" opacity="1.000000" stroke="none" 
	d="
M32.195541,45.427616 
	C32.462376,45.205791 32.919918,45.190475 33.721344,45.214199 
	C34.065228,45.253235 34.021851,45.638271 34.015266,45.832180 
	C33.467869,45.895432 32.927055,45.764778 32.195541,45.427616 
z"/>
<path fill="#F2FBDF" opacity="1.000000" stroke="none" 
	d="
M39.030594,49.242195 
	C39.034203,48.926956 39.447636,49.011436 39.647728,49.077000 
	C39.905415,49.548840 39.963001,49.955112 40.054516,50.667870 
	C39.734623,50.502045 39.380802,50.029736 39.030594,49.242195 
z"/>
<path fill="#F1F9DE" opacity="1.000000" stroke="none" 
	d="
M26.113174,42.250504 
	C26.286770,42.179745 26.584003,42.336506 27.011368,42.714802 
	C26.839935,42.783566 26.538374,42.630795 26.113174,42.250504 
z"/>
<path fill="#B1C782" opacity="1.000000" stroke="none" 
	d="
M23.992407,39.303909 
	C24.315456,39.155647 24.660845,39.290199 24.994267,39.728218 
	C24.659782,39.883366 24.337265,39.735043 23.992407,39.303909 
z"/>
<path fill="#F1F9DE" opacity="1.000000" stroke="none" 
	d="
M21.075047,37.205063 
	C21.320341,37.089310 21.556126,37.288548 21.762020,37.813187 
	C21.522909,37.909969 21.300711,37.703789 21.075047,37.205063 
z"/>
<path fill="#A9CB6C" opacity="1.000000" stroke="none" 
	d="
M49.718506,9.002131 
	C49.774174,9.223118 49.563492,9.491479 49.098938,9.827590 
	C49.047428,9.613394 49.249794,9.331450 49.718506,9.002131 
z"/>
<path fill="#A9CB6C" opacity="1.000000" stroke="none" 
	d="
M30.871351,32.020901 
	C30.480637,31.843739 30.118450,31.318712 29.771612,30.469597 
	C30.157932,30.654682 30.528906,31.163860 30.871351,32.020901 
z"/>
<path fill="#EBF9D2" opacity="1.000000" stroke="none" 
	d="
M24.954361,20.023571 
	C23.836622,20.821882 22.610813,21.506182 21.623478,22.442066 
	C19.519829,24.436085 19.066456,22.479330 18.018414,21.000767 
	C21.413151,17.632877 25.027641,14.374321 28.825809,11.346148 
	C29.331894,10.942661 30.769358,11.707380 31.775501,11.931104 
	C31.380972,12.410110 30.986441,12.889116 30.145964,13.802279 
	C29.541416,14.624689 29.382816,15.012943 29.224216,15.401197 
	C28.846697,17.335917 28.469177,19.270638 27.800632,21.445423 
	C26.657862,21.131517 25.806110,20.577545 24.954361,20.023571 
z"/>
<path fill="#E8F8C8" opacity="1.000000" stroke="none" 
	d="
M24.857653,20.306107 
	C25.806110,20.577545 26.657862,21.131517 27.747978,21.840662 
	C27.975615,23.383989 27.964886,24.772144 27.920473,26.574736 
	C27.451220,26.605080 27.015646,26.220989 26.176504,25.481030 
	C26.123608,26.622040 26.086910,27.413628 25.663471,28.516190 
	C24.753681,28.878084 24.230635,28.929007 23.707586,28.979931 
	C24.058706,26.182835 24.409826,23.385738 24.857653,20.306107 
z"/>
<path fill="#E3F8B7" opacity="1.000000" stroke="none" 
	d="
M29.451839,15.312593 
	C29.382816,15.012943 29.541416,14.624689 29.989323,14.085278 
	C30.078905,14.364076 29.879183,14.794032 29.451839,15.312593 
z"/>
<path fill="#A4CC60" opacity="1.000000" stroke="none" 
	d="
M40.390053,49.123398 
	C39.881470,47.782909 39.697319,46.613564 39.238586,45.215157 
	C38.964001,44.986095 38.914299,44.495007 39.214848,44.035938 
	C41.248867,40.451481 42.974903,38.311592 47.234371,40.595406 
	C48.858826,41.466396 51.739349,39.994713 54.047440,39.590672 
	C53.950199,39.138031 53.852959,38.685390 53.755718,38.232750 
	C51.965485,38.011868 50.175255,37.790985 47.328415,37.439735 
	C51.580833,35.085152 51.580833,35.085152 57.796898,38.017174 
	C62.270935,42.406219 62.243362,46.982819 57.407764,51.881512 
	C53.364552,50.450470 49.964760,47.247486 45.369316,50.454178 
	C44.507214,51.055748 42.300636,49.730579 40.390053,49.123398 
z"/>
<path fill="#ABCD6B" opacity="1.000000" stroke="none" 
	d="
M57.791225,37.668701 
	C51.580833,35.085152 51.580833,35.085152 47.328415,37.439735 
	C50.175255,37.790985 51.965485,38.011868 53.755718,38.232750 
	C53.852959,38.685390 53.950199,39.138031 54.047440,39.590672 
	C51.739349,39.994713 48.858826,41.466396 47.234371,40.595406 
	C42.974903,38.311592 41.248867,40.451481 39.248817,43.791489 
	C39.973755,41.598877 40.965271,39.191643 41.994976,36.427368 
	C49.857243,32.089413 52.905445,32.331280 57.791225,37.668701 
z"/>
<path fill="#B1CA80" opacity="1.000000" stroke="none" 
	d="
M23.797825,29.343822 
	C24.230635,28.929007 24.753681,28.878084 25.669857,28.828274 
	C28.100922,32.139473 30.138861,35.449566 32.249969,38.878494 
	C27.832451,37.380932 25.076298,34.311512 23.797825,29.343822 
z"/>
</svg>